
<svg width="135px" height="101px" viewBox="0 0 135 101" version="1.1" xmlns="http://www.w3.org/2000/svg" xmlns:xlink="http://www.w3.org/1999/xlink">
    <!-- Generator: Sketch 48.2 (47327) - http://www.bohemiancoding.com/sketch -->
    <desc>Created with Sketch.</desc>
    <defs></defs>
    <g id="Page-1" stroke="none" stroke-width="1" fill="none" fill-rule="evenodd">
        <g id="Artboard" transform="translate(-731.000000, -70.000000)">
            <g id="Group-2" transform="translate(731.000000, 70.000000)">
                <rect id="Rectangle-6-Copy" fill="#858585" transform="translate(116.028151, 75.192004) scale(-1, 1) rotate(28.000000) translate(-116.028151, -75.192004) " x="115.028151" y="47.1920042" width="2" height="56"></rect>
                <rect id="Rectangle-6" fill="#858585" transform="translate(18.028151, 74.192004) rotate(28.000000) translate(-18.028151, -74.192004) " x="17.0281514" y="46.1920042" width="2" height="56"></rect>
                <ellipse id="Oval-2" fill="#000000" cx="129.5" cy="100" rx="5.5" ry="1"></ellipse>
                <ellipse id="Oval-2-Copy" fill="#000000" cx="5.5" cy="99" rx="5.5" ry="1"></ellipse>
                <g id="Group" transform="translate(46.000000, 0.000000)">
                    <path d="M16.651298,0 L30.2932168,0 C31.3104469,0.974083984 31.8190619,1.69826186 31.8190619,2.17253363 C31.8190619,2.6468054 31.3104469,3.25596086 30.2932168,4 L16.651298,4 C15.5504327,3.20070106 15,2.59154561 15,2.17253363 C15,1.75352166 15.5504327,1.02934378 16.651298,0 Z" id="Rectangle-4-Copy" fill="#000000"></path>
                    <path d="M9.58774602,3.01522409 L38.1823695,3.01522409 C44.6068311,13.8673673 47.8190619,21.9612177 47.8190619,27.2967751 C47.8190619,32.6323325 46.3729947,39.4853314 43.4808602,47.8557717 L4.69488251,47.8557717 C1.56496084,38.8636587 0,32.0106598 0,27.2967751 C0,22.5828904 3.19591534,14.48904 9.58774602,3.01522409 Z" id="Rectangle-4" fill="#B22234"></path>
                    <path d="M9.59978543,2.99636534 L20,2.99636534 L20,17 L2.65559355,17 C4.26524378,13.1035763 5.55927972,10.3003245 6.53770136,8.59024446 C7.516123,6.88016443 8.53681769,5.01553805 9.59978543,2.99636534 Z" id="Rectangle-7" fill="#3C3B6E"></path>
                    <polygon id="Rectangle-8" fill="#FFFFFF" points="20 5 39.3448983 5 40.4907464 7 20 7"></polygon>
                    <polygon id="Rectangle-8-Copy" fill="#FFFFFF" points="20 9 41.5566652 9 42.5798262 11 20 11"></polygon>
                    <polygon id="Rectangle-8-Copy-2" fill="#FFFFFF" points="20 13 43.5668056 13 44.4824643 15 20 15"></polygon>
                    <polygon id="Rectangle-8-Copy-3" fill="#FFFFFF" points="2.66830537 17 45.329586 17 46.0890468 19 1.89053212 19"></polygon>
                    <path d="M1.19916731,21 L46.7297869,21 C46.8549422,21.4239051 46.9468587,21.7425827 47.0055362,21.9560327 C47.0642137,22.1694826 47.1555643,22.5174717 47.2795881,23 L0.632051503,23 C0.747640108,22.5518345 0.836413281,22.2185012 0.898371024,22 C0.960328766,21.7814988 1.0605942,21.4481655 1.19916731,21 Z" id="Rectangle-8-Copy-4" fill="#FFFFFF"></path>
                    <path d="M0.207275391,25 L47.6529664,25 C47.710375,25.4755897 47.7488105,25.8324038 47.768273,26.0704424 C47.7877354,26.3084809 47.8038078,26.6183335 47.81649,27 L0.000987987574,27 C0.0185347755,26.5870081 0.0382995757,26.2771556 0.0602823884,26.0704424 C0.082265201,25.8637292 0.131262868,25.506915 0.207275391,25 Z" id="Rectangle-8-Copy-5" fill="#FFFFFF"></path>
                    <polygon id="Rectangle-10" fill="#000000" points="10 2 38 2 38.1878586 3.0294379 9.58459106 3.0294379"></polygon>
                </g>
                <polygon id="Rectangle-5" fill="#000000" points="56.9714478 85 64.9928856 85 67 96 55 96"></polygon>
                <polygon id="Rectangle-5-Copy" fill="#000000" points="69.9714478 85 77.9928856 85 80 96 68 96"></polygon>
                <polygon id="Rectangle-5-Copy-3" fill="#000000" points="78.9714478 79 86.9928856 79 89 90 77 90"></polygon>
                <polygon id="Rectangle-5-Copy-2" fill="#000000" points="94.9714478 80 102.992886 80 105 91 93 91"></polygon>
                <polygon id="Rectangle-5-Copy-5" fill="#000000" points="31.9714478 79 39.9928856 79 42 90 30 90"></polygon>
                <polygon id="Rectangle-5-Copy-4" fill="#000000" points="47.9714478 79 55.9928856 79 58 90 46 90"></polygon>
                <circle id="Oval-Copy-4" fill="#C88F00" cx="64" cy="49" r="3"></circle>
                <circle id="Oval-Copy-5" fill="#C88F00" cx="68" cy="48" r="3"></circle>
                <circle id="Oval-Copy-6" fill="#C88F00" cx="57" cy="49" r="3"></circle>
                <path d="M42.3536354,36 L94.8431198,36 L105.255276,49.0760879 C102.227795,54.7344863 100.714055,58.5227915 100.714055,60.4410033 C100.714055,65.7765608 98.7570768,72.6295596 94.8431198,81 L42.3536354,81 C38.1178785,72.007887 36,65.1548881 36,60.4410033 C36,58.5975296 33.9177011,54.8092245 29.7531033,49.0760879 L42.3536354,36 Z" id="Rectangle-4-Copy-2" fill="#7B7B7B"></path>
                <circle id="Oval" fill="#C88F00" cx="75.5" cy="38.5" r="7.5"></circle>
                <path d="M78,90 C86.0215581,90 88,82.1649831 88,72.5 C88,62.8350169 85.7976026,55 78,55 C70.2023974,55 68,62.8350169 68,72.5 C68,82.1649831 69.9784419,90 78,90 Z" id="Oval-Copy-8" fill="#AF7E02"></path>
                <path d="M59,90 C67.0215581,90 69,82.1649831 69,72.5 C69,62.8350169 66.7976026,55 59,55 C51.2023974,55 49,62.8350169 49,72.5 C49,82.1649831 50.9784419,90 59,90 Z" id="Oval-Copy-11" fill="#AF7E02"></path>
                <path d="M40,87 C48.0215581,87 50,79.1649831 50,69.5 C50,59.8350169 47.7976026,52 40,52 C32.2023974,52 30,59.8350169 30,69.5 C30,79.1649831 31.9784419,87 40,87 Z" id="Oval-Copy-12" fill="#AF7E02"></path>
                <path d="M97,86 C105.021558,86 107,78.1649831 107,68.5 C107,58.8350169 104.797603,51 97,51 C89.2023974,51 87,58.8350169 87,68.5 C87,78.1649831 88.9784419,86 97,86 Z" id="Oval-Copy-10" fill="#AF7E02"></path>
                <circle id="Oval-Copy-2" fill="#C88F00" cx="89.5" cy="38.5" r="7.5"></circle>
                <circle id="Oval-Copy-3" fill="#C88F00" cx="62.5" cy="38.5" r="7.5"></circle>
                <circle id="Oval-Copy-13" fill="#C88F00" cx="48.5" cy="37.5" r="7.5"></circle>
                <path d="M28,48 C45.8469481,48.7528921 59.2212907,49.1293382 68.1230279,49.1293382 C77.0247651,49.1293382 89.9837558,48.7528921 107,48 L107,50 C89.7088982,50.6674746 76.7499075,51.0012118 68.1230279,51.0012118 C59.4961484,51.0012118 46.1218057,50.6674746 28,50 L28,48 Z" id="Rectangle-9" fill="#000000"></path>
                <path d="M29.9644734,71 C47.7115757,71.7789858 60.8389275,72.1684787 69.3465288,72.1684787 C77.85413,72.1684787 90.3923662,71.7789858 106.961237,71 L106.961237,72.0848453 C90.1296782,72.8080754 77.5914421,73.1696905 69.3465288,73.1696905 C61.1016155,73.1696905 47.9742637,72.722878 29.9644734,71.8292531 L29.9644734,71 Z" id="Rectangle-9-Copy" fill="#000000"></path>
            </g>
        </g>
    </g>
</svg>
